# File created by Blade
# Date/Time:  Thu Sep 25 15:41:58 2014
# Frame Rate: 120.000 fps
#------------------------------------------------------
:FULLY-SPECIFIED
:DEGREES
449
root -5.175649 33.559473 0.034397 203.646384 -60.694639 -67.259387
Spine -0.186530 15.450441 -16.488980
Head -76.080422 10.971825 10.941666
LeftShoulder -7.998168 22.936941 34.198287
LeftArm 134.550218 -71.958114 -90.798588
LeftForeArm 1.745282 -0.000000 16.280600
LeftHand -40.810386 -0.000000 64.975860
LeftHandThumb1 -26.253704 0.000000 33.147579
RightShoulder -1.355048 25.976429 -36.290382
RightArm 70.553433 45.323298 44.377056
RightForeArm -9.932528 -0.000000 23.730564
RightHand -8.271632 -0.000000 -51.310536
RightHandThumb1 -24.326973 -0.000000 -32.862282
LeftUpLeg -107.878630 25.409449 12.976484
LeftLeg 2.370541 -0.000000 -0.000000
LeftFoot -4.066341 17.685536 -9.820282
LeftToeBase -17.212086 -0.000000 0.000000
RightUpLeg -6.003557 -10.092403 -6.110902
RightLeg 18.594444 -0.000000 -0.000000
RightFoot 20.191176 -5.055458 -7.038049
RightToeBase 12.985049 -0.000000 -0.000000
450
root -5.576481 33.823595 0.024561 203.289002 -61.016494 -64.940630
Spine -1.130781 15.961600 -15.921229
Head -76.391218 10.747169 10.683704
LeftShoulder -8.396263 23.252242 34.007786
LeftArm 132.717113 -73.330497 -87.782479
LeftForeArm -0.867000 -0.000000 15.380090
LeftHand -40.687992 0.000000 66.223007
LeftHandThumb1 -26.253704 0.000000 33.147579
RightShoulder -2.391309 24.121579 -35.925982
RightArm 73.547334 46.382489 45.911426
RightForeArm -10.179315 0.000000 23.025010
RightHand -7.954478 0.000000 -52.275510
RightHandThumb1 -24.326973 -0.000000 -32.862282
LeftUpLeg -107.471154 25.711894 12.121089
LeftLeg -1.276677 -0.000000 0.000000
LeftFoot 3.482809 15.622287 -6.495406
LeftToeBase -18.002820 -0.000000 0.000000
RightUpLeg -4.292045 -9.958227 -6.255549
RightLeg 17.697315 -0.000000 -0.000000
RightFoot 20.955334 -4.513103 -7.240224
RightToeBase 13.082934 -0.000000 -0.000000
451
root -5.982311 34.076079 0.029982 203.112397 -61.438993 -62.773413
Spine -2.202818 16.285300 -15.363802
Head -76.760412 10.540471 10.260549
LeftShoulder -8.636914 24.148055 33.579692
LeftArm 134.283024 -74.354794 -88.153454
LeftForeArm -2.637844 0.000000 14.650064
LeftHand -40.660675 0.000000 67.218360
LeftHandThumb1 -26.253704 0.000000 33.147579
RightShoulder -3.341540 22.449544 -35.449507
RightArm 76.473071 47.139371 47.221268
RightForeArm -10.313713 -0.000000 22.126415
RightHand -7.817943 0.000000 -52.899571
RightHandThumb1 -24.326973 -0.000000 -32.862282
LeftUpLeg -107.009680 25.944791 11.947330
LeftLeg -3.631894 -0.000000 0.000000
LeftFoot 10.359598 15.252809 -6.607793
LeftToeBase -16.553038 -0.000000 0.000000
RightUpLeg -2.833341 -9.871681 -6.333772
RightLeg 16.957860 -0.000000 -0.000000
RightFoot 21.860249 -4.424141 -7.026115
RightToeBase 12.315617 -0.000000 -0.000000
452
root -6.373557 34.306001 0.026990 202.223334 -62.121759 -60.099192
Spine -2.897915 16.387868 -14.055642
Head -77.128465 9.980553 9.619107
LeftShoulder -8.922602 24.660712 32.648871
LeftArm 136.533636 -74.720894 -89.293047
LeftForeArm -3.602337 -0.000000 14.089499
LeftHand -40.459538 0.000000 68.111792
LeftHandThumb1 -26.253704 0.000000 33.147579
RightShoulder -4.315339 21.228202 -35.385192
RightArm 79.145857 47.486766 48.471603
RightForeArm -10.373926 -0.000000 21.263906
RightHand -7.675471 -0.000000 -53.969971
RightHandThumb1 -24.326973 -0.000000 -32.862282
LeftUpLeg -106.728848 25.674903 11.835180
LeftLeg -4.285118 -0.000000 0.000000
LeftFoot 14.760520 17.160752 -7.361406
LeftToeBase -10.112720 -0.000000 0.000000
RightUpLeg -1.200524 -9.780402 -6.047797
RightLeg 16.258178 -0.000000 -0.000000
RightFoot 22.766024 -4.424571 -6.764052
RightToeBase 12.547247 -0.000000 -0.000000
453
root -6.762091 34.522699 0.003618 200.355135 -62.781910 -56.650968
Spine -3.252811 16.539712 -12.134497
Head -77.678959 9.212684 8.757792
LeftShoulder -9.307202 25.434413 31.349971
LeftArm 141.290609 -74.533142 -93.061935
LeftForeArm -3.601403 -0.000000 13.691920
LeftHand -40.450023 -0.000000 69.358270
LeftHandThumb1 -26.253704 0.000000 33.147579
RightShoulder -5.190614 20.265555 -35.517092
RightArm 81.455782 47.646292 49.330696
RightForeArm -10.105879 -0.000000 20.323749
RightHand -7.381187 -0.000000 -54.863315
RightHandThumb1 -24.326973 -0.000000 -32.862282
LeftUpLeg -106.031238 25.758713 12.879965
LeftLeg -3.494029 -0.000000 0.000000
LeftFoot 16.755969 21.128621 -9.976628
LeftToeBase -2.459494 -0.000000 0.000000
RightUpLeg 0.493987 -9.361560 -5.351239
RightLeg 15.619324 -0.000000 -0.000000
RightFoot 23.993858 -4.382554 -6.514556
RightToeBase 12.428414 -0.000000 -0.000000
454
root -7.153118 34.728648 0.022110 200.261522 -63.323894 -54.796252
Spine -4.145496 16.164722 -11.381866
Head -77.981450 8.790513 8.374501
LeftShoulder -9.582664 26.109452 30.639057
LeftArm 146.473074 -73.562053 -97.936100
LeftForeArm -2.692222 0.000000 13.870750
LeftHand -41.017196 -0.000000 69.911905
LeftHandThumb1 -26.253704 0.000000 33.147579
RightShoulder -5.756175 19.705808 -35.542111
RightArm 82.908956 47.702622 49.759845
RightForeArm -9.716021 -0.000000 19.526134
RightHand -7.040505 0.000000 -55.774460
RightHandThumb1 -24.326973 -0.000000 -32.862282
LeftUpLeg -105.581925 25.696061 13.514165
LeftLeg -1.447516 -0.000000 0.000000
LeftFoot 16.938212 25.738139 -11.659769
LeftToeBase 1.934527 -0.000000 -0.000000
RightUpLeg 1.411533 -9.033143 -5.301113
RightLeg 15.581417 -0.000000 -0.000000
RightFoot 24.777100 -4.099306 -6.567898
RightToeBase 12.572643 -0.000000 -0.000000
455
root -7.546463 34.915820 0.055932 200.888650 -63.932574 -53.709886
Spine -5.092311 15.485032 -11.067234
Head -78.291619 8.685089 8.087994
LeftShoulder -9.960777 25.872314 30.274835
LeftArm 148.184905 -72.100748 -99.643956
LeftForeArm -1.720730 -0.000000 14.131886
LeftHand -41.081986 -0.000000 70.477797
LeftHandThumb1 -26.253704 0.000000 33.147579
RightShoulder -6.118123 19.443255 -35.382760
RightArm 83.807318 47.748710 49.672647
RightForeArm -9.204704 -0.000000 18.819554
RightHand -6.710559 0.000000 -56.772099
RightHandThumb1 -24.326973 -0.000000 -32.862282
LeftUpLeg -105.117030 25.380532 14.012624
LeftLeg 1.627378 -0.000000 -0.000000
LeftFoot 16.088758 28.795912 -12.497665
LeftToeBase 1.743699 -0.000000 -0.000000
RightUpLeg 2.065042 -8.963559 -5.489080
RightLeg 15.667239 -0.000000 -0.000000
RightFoot 25.554560 -3.463800 -6.830204
RightToeBase 12.795520 -0.000000 -0.000000
456
root -7.943478 35.090065 0.096174 201.196609 -64.522304 -52.392794
Spine -5.819812 14.873053 -10.422387
Head -78.776744 8.514414 7.482315
LeftShoulder -10.364398 25.849066 29.583586
LeftArm 150.802462 -70.527964 -102.261363
LeftForeArm -0.799483 -0.000000 14.667644
LeftHand -41.941238 -0.000000 70.776810
LeftHandThumb1 -26.253704 0.000000 33.147579
RightShoulder -6.485954 19.168146 -35.328076
RightArm 84.617705 47.835379 49.341395
RightForeArm -8.675772 -0.000000 18.242961
RightHand -6.605348 -0.000000 -57.565575
RightHandThumb1 -24.326973 -0.000000 -32.862282
LeftUpLeg -104.521589 24.947012 14.568877
LeftLeg 5.114082 -0.000000 -0.000000
LeftFoot 16.329135 30.220493 -12.384879
LeftToeBase 1.403544 -0.000000 -0.000000
RightUpLeg 2.601775 -8.913923 -5.514592
RightLeg 15.700595 -0.000000 -0.000000
RightFoot 26.448088 -2.638883 -7.143180
RightToeBase 12.966688 -0.000000 -0.000000
457
root -8.346539 35.246717 0.148244 201.792754 -65.036723 -51.386739
Spine -6.626563 14.291039 -10.042737
Head -79.326443 8.724685 6.893082
LeftShoulder -11.035077 26.833924 28.722844
LeftArm 155.054885 -68.619349 -106.182358
LeftForeArm 0.660435 -0.000000 14.831394
LeftHand -41.299982 -0.000000 71.611243
LeftHandThumb1 -26.253704 0.000000 33.147579
RightShoulder -6.710944 18.826166 -34.999744
RightArm 85.392031 48.044030 48.953675
RightForeArm -8.244382 -0.000000 17.835602
RightHand -6.500596 -0.000000 -58.191471
RightHandThumb1 -24.326973 -0.000000 -32.862282
LeftUpLeg -104.051449 24.278598 14.363475
LeftLeg 8.587621 -0.000000 -0.000000
LeftFoot 18.231961 30.069824 -9.816701
LeftToeBase 3.638089 -0.000000 -0.000000
RightUpLeg 2.940933 -9.069401 -5.616081
RightLeg 15.553626 -0.000000 -0.000000
RightFoot 27.384090 -1.819644 -7.170739
RightToeBase 13.084148 -0.000000 -0.000000
458
root -8.745577 35.387657 0.206526 202.877530 -65.475738 -50.880836
Spine -7.474490 13.690349 -9.901339
Head -79.637712 8.716852 6.534739
LeftShoulder -11.545410 27.089961 28.095782
LeftArm 156.698128 -67.089552 -107.852741
LeftForeArm 1.914726 0.000000 15.295001
LeftHand -41.115971 0.000000 72.274539
LeftHandThumb1 -26.253704 0.000000 33.147579
RightShoulder -6.943795 18.427557 -34.655865
RightArm 86.494538 48.242195 48.968405
RightForeArm -8.035397 -0.000000 17.526587
RightHand -6.477734 -0.000000 -59.012690
RightHandThumb1 -24.326973 -0.000000 -32.862282
LeftUpLeg -103.463508 23.467738 13.911030
LeftLeg 11.992968 -0.000000 -0.000000
LeftFoot 19.146667 30.853496 -11.600127
LeftToeBase 6.959425 -0.000000 -0.000000
RightUpLeg 3.117692 -9.556118 -5.883277
RightLeg 15.197233 -0.000000 -0.000000
RightFoot 28.248002 -1.071502 -6.685475
RightToeBase 13.199707 -0.000000 -0.000000
459
root -9.147822 35.504069 0.271623 204.196703 -65.846563 -50.626039
Spine -8.394490 13.067199 -9.907597
Head -80.048711 8.843402 6.155664
LeftShoulder -12.267905 27.561354 27.361429
LeftArm 158.002597 -65.733383 -109.066410
LeftForeArm 2.737037 -0.000000 15.892440
LeftHand -41.129430 0.000000 73.016697
LeftHandThumb1 -26.253704 0.000000 33.147579
RightShoulder -7.077958 17.782514 -34.049232
RightArm 88.151922 48.532414 49.385409
RightForeArm -8.049489 0.000000 17.239662
RightHand -6.454887 0.000000 -59.890207
RightHandThumb1 -24.326973 -0.000000 -32.862282
LeftUpLeg -102.613041 22.590561 13.408097
LeftLeg 15.116276 -0.000000 -0.000000
LeftFoot 19.751026 32.238453 -14.484203
LeftToeBase 7.092441 -0.000000 -0.000000
RightUpLeg 3.164157 -10.294916 -6.191129
RightLeg 14.612444 -0.000000 -0.000000
RightFoot 29.163390 -0.588049 -5.774937
RightToeBase 13.199808 -0.000000 -0.000000
460
root -9.540547 35.598838 0.343171 205.922353 -66.221115 -50.857970
Spine -9.296413 12.385498 -10.050063
Head -80.290536 8.694774 5.881591
LeftShoulder -12.841574 28.137280 26.530541
LeftArm 159.337614 -65.000529 -110.123719
LeftForeArm 3.070871 -0.000000 16.356021
LeftHand -40.889847 -0.000000 73.685478
LeftHandThumb1 -26.253704 0.000000 33.147579
RightShoulder -7.161697 17.125579 -33.383324
RightArm 90.059167 48.771887 50.085998
RightForeArm -8.069165 0.000000 17.086934
RightHand -6.523149 -0.000000 -60.823722
RightHandThumb1 -24.326973 -0.000000 -32.862282
LeftUpLeg -101.605814 21.502334 12.604999
LeftLeg 17.977093 -0.000000 -0.000000
LeftFoot 20.609182 33.414244 -16.748012
LeftToeBase 7.322231 -0.000000 -0.000000
RightUpLeg 3.189983 -11.499054 -6.643128
RightLeg 13.830445 -0.000000 -0.000000
RightFoot 29.825409 0.057911 -4.960541
RightToeBase 12.915139 -0.000000 -0.000000
461
root -9.926891 35.672962 0.404419 207.758576 -66.533544 -51.204382
Spine -10.249447 11.752378 -10.213752
Head -80.542175 8.292852 5.571853
LeftShoulder -13.179865 28.320023 25.716102
LeftArm 159.818518 -65.195583 -110.241168
LeftForeArm 2.849388 -0.000000 16.648416
LeftHand -40.760918 -0.000000 74.828410
LeftHandThumb1 -26.253704 0.000000 33.147579
RightShoulder -7.379784 16.296779 -32.765554
RightArm 92.482331 48.876668 51.362287
RightForeArm -8.527919 -0.000000 16.936593
RightHand -6.531316 -0.000000 -61.853842
RightHandThumb1 -24.326973 -0.000000 -32.862282
LeftUpLeg -100.454664 20.425143 11.582436
LeftLeg 20.689990 -0.000000 -0.000000
LeftFoot 21.894057 33.798624 -17.884668
LeftToeBase 8.518199 -0.000000 -0.000000
RightUpLeg 3.105506 -12.900795 -7.051372
RightLeg 12.937709 -0.000000 -0.000000
RightFoot 30.295545 0.608129 -4.100228
RightToeBase 12.624166 -0.000000 -0.000000
